<svg width="24" height="24" viewBox="0 0 24 24" fill="none" xmlns="http://www.w3.org/2000/svg">
<path d="M9.14334 11.2546V11.2468C8.24629 11.2468 7.5224 11.9884 7.5224 12.8998C7.5224 13.8113 8.24629 14.5529 9.14334 14.5529C10.0404 14.5529 10.7643 13.8113 10.7643 12.9076C10.7643 11.996 10.0325 11.2546 9.14334 11.2546Z" fill="white" fill-opacity="0.4"/>
<path d="M12 0.28125C5.52792 0.28125 0.28125 5.52792 0.28125 12C0.28125 18.4721 5.52792 23.7188 12 23.7188C18.4721 23.7188 23.7188 18.4721 23.7188 12C23.7188 5.52792 18.4721 0.28125 12 0.28125ZM16.3357 18.1833C16.3357 18.1833 15.7453 17.5266 15.3206 16.9474C17.3664 16.3681 18.1378 15.2095 18.1378 15.2095C16.0106 16.5247 14.024 17.0307 12 16.9649C9.97598 17.0305 7.98938 16.5247 5.86247 15.2095C5.86247 15.2095 6.63356 16.3681 8.67966 16.9474C8.25478 17.5268 7.66462 18.1833 7.66462 18.1833C4.15495 18.1061 2.79375 15.9587 2.715 16.0514C2.715 11.2702 5.03625 7.377 5.03625 7.377C7.11356 5.88638 9.04927 5.82441 9.41906 5.81667L9.65517 6.04069C7.00341 6.7822 5.72081 7.94086 5.72081 7.94086C7.99673 6.84159 10.1418 6.45492 12 6.43177C13.8582 6.4552 16.0031 6.84159 18.2792 7.94086C18.2792 7.94086 16.9966 6.7822 14.3449 6.04069L14.5809 5.81667C14.9508 5.82441 16.8864 5.88619 18.9637 7.377C18.9637 7.377 21.285 11.2701 21.285 16.0514C21.2063 15.9587 19.845 18.1061 16.3357 18.1833Z" fill="white" fill-opacity="0.4"/>
<path d="M14.8568 11.2468V11.2546C13.9676 11.2546 13.2358 11.9961 13.2358 12.9076C13.2358 13.8113 13.9598 14.5529 14.8568 14.5529C15.7538 14.5529 16.4777 13.8113 16.4777 12.8998C16.4777 11.9883 15.7538 11.2468 14.8568 11.2468Z" fill="white" fill-opacity="0.4"/>
</svg>
