<svg width="360" height="800" viewBox="0 0 360 800" fill="none" xmlns="http://www.w3.org/2000/svg">
<rect x="32" width="1" height="800" fill="white" fill-opacity="0.04"/>
<rect x="130" width="1" height="800" fill="white" fill-opacity="0.04"/>
<rect x="81" width="1" height="800" fill="white" fill-opacity="0.04"/>
<rect x="179" width="1" height="800" fill="white" fill-opacity="0.04"/>
<rect x="228" width="1" height="800" fill="white" fill-opacity="0.04"/>
<rect x="326" width="1" height="800" fill="white" fill-opacity="0.04"/>
<rect x="277" width="1" height="800" fill="white" fill-opacity="0.04"/>
<rect y="48" width="360" height="1" fill="white" fill-opacity="0.04"/>
<rect y="146" width="360" height="1" fill="white" fill-opacity="0.04"/>
<rect y="97" width="360" height="1" fill="white" fill-opacity="0.04"/>
<rect y="195" width="360" height="1" fill="white" fill-opacity="0.04"/>
<rect y="244" width="360" height="1" fill="white" fill-opacity="0.04"/>
<rect y="342" width="360" height="1" fill="white" fill-opacity="0.04"/>
<rect y="293" width="360" height="1" fill="white" fill-opacity="0.04"/>
<rect y="391" width="360" height="1" fill="white" fill-opacity="0.04"/>
<rect y="440" width="360" height="1" fill="white" fill-opacity="0.04"/>
<rect y="538" width="360" height="1" fill="white" fill-opacity="0.04"/>
<rect y="489" width="360" height="1" fill="white" fill-opacity="0.04"/>
<rect y="587" width="360" height="1" fill="white" fill-opacity="0.04"/>
<rect y="636" width="360" height="1" fill="white" fill-opacity="0.04"/>
<rect y="734" width="360" height="1" fill="white" fill-opacity="0.04"/>
<rect y="685" width="360" height="1" fill="white" fill-opacity="0.04"/>
<rect y="783" width="360" height="1" fill="white" fill-opacity="0.04"/>
</svg>
